# Blender 4.2.3 LTS
# www.blender.org
mtllib Lid_square_90.mtl
o Plane
v -0.287699 -0.022528 0.244794
v -0.285603 -0.077683 0.168927
v -0.130251 -0.022528 0.244794
v -0.128155 -0.077683 0.168927
v -0.128222 -0.005852 0.191635
v -0.128155 -0.024035 0.168927
v -0.128209 -0.005306 0.187205
v -0.128196 -0.005676 0.182945
v -0.128185 -0.006947 0.179019
v -0.128174 -0.009070 0.175578
v -0.128166 -0.011963 0.172754
v -0.128160 -0.015517 0.170656
v -0.128156 -0.019593 0.169363
v -0.285603 -0.025336 0.168927
v -0.285670 -0.006734 0.191725
v -0.285604 -0.020885 0.169365
v -0.285608 -0.016785 0.170662
v -0.285614 -0.013194 0.172769
v -0.285623 -0.010248 0.175604
v -0.285633 -0.008061 0.179059
v -0.285644 -0.006718 0.183000
v -0.285657 -0.006270 0.187277
vn 0.0026 -0.9563 -0.2922
vn 0.0008 -0.0978 0.9952
vn 0.0025 -0.3019 0.9533
vn 0.0041 -0.5072 0.8618
vn 0.0054 -0.6959 0.7181
vn 0.0063 -0.8480 0.5300
vn 0.0066 -0.9490 0.3153
vn 0.0064 -0.9954 0.0954
vn 0.0058 -0.9936 -0.1130
vn -0.0000 -0.0000 1.0000
vt 0.000000 0.000000
vt 0.344481 0.000000
vt 0.339685 1.000000
vt 0.000000 1.000000
vt 0.667532 0.000000
vt 0.659271 1.000000
vt 0.631057 0.999992
vt 0.639267 -0.000008
vt 0.605170 0.999968
vt 0.613228 -0.000032
vt 0.582603 0.999929
vt 0.590416 -0.000072
vt 0.511474 0.999441
vt 0.519729 0.000000
vt 0.429053 0.999917
vt 0.435651 -0.000083
vt 0.402682 0.999962
vt 0.408749 -0.000038
vt 0.372506 0.999990
vt 0.377965 -0.000010
vt 1.000000 0.000000
vt 1.000000 1.000000
s 0
usemtl cream.002
f 1/1/1 15/2/1 5/3/1 3/4/1
f 14/5/2 6/6/2 13/7/2 16/8/2
f 16/8/3 13/7/3 12/9/3 17/10/3
f 17/10/4 12/9/4 11/11/4 18/12/4
f 18/12/5 11/11/5 10/13/5 19/14/5
f 19/14/6 10/13/6 9/15/6 20/16/6
f 20/16/7 9/15/7 8/17/7 21/18/7
f 21/18/8 8/17/8 7/19/8 22/20/8
f 22/20/9 7/19/9 5/3/9 15/2/9
f 6/6/10 14/5/10 2/21/10 4/22/10
