# Blender 4.2.3 LTS
# www.blender.org
mtllib Cup_60.mtl
o Plane
v -0.248381 0.023940 0.236380
v -0.285603 -0.077683 0.168927
v -0.128155 0.079768 0.168927
v -0.128155 -0.077683 0.168927
v -0.285603 -0.077683 0.168927
v -0.248381 0.023940 0.236380
v -0.284335 -0.067988 0.171225
v -0.280616 -0.053918 0.177964
v -0.274701 -0.036432 0.188684
v -0.266992 -0.016722 0.202653
v -0.258015 0.003870 0.218922
v -0.248381 0.023940 0.236380
v -0.128155 0.079768 0.168927
v -0.227670 0.038390 0.218922
v -0.205215 0.051854 0.202653
v -0.182547 0.063416 0.188684
v -0.161209 0.072289 0.177964
v -0.142657 0.077866 0.171225
vn -1.0000 -0.0000 -0.0000
vn 0.2100 -0.2071 0.9555
vn 0.4551 -0.4367 0.7760
vn 0.5702 -0.5336 0.6246
vn 0.6352 -0.5805 0.5094
vn 0.6788 -0.6065 0.4140
vn 0.7101 -0.6242 0.3258
vn -0.0000 -0.0000 1.0000
vt 0.000000 0.000000
vt 1.000000 0.000000
vt 0.000000 1.000000
vt 0.012082 0.907891
vt 0.938427 0.008055
vt 0.047504 0.790061
vt 0.849067 0.031673
vt 0.085277 0.632863
vt 0.740154 0.071745
vt -0.011224 0.375913
vt 0.429779 -0.008441
vt -0.002855 0.188545
vt 0.217774 -0.002147
vt 1.000000 1.000000
s 0
usemtl cream.002
f 1/1/1 6/1/1 12/1/1
f 5/2/2 13/3/2 18/4/2 7/5/2
f 7/5/3 18/4/3 17/6/3 8/7/3
f 8/7/4 17/6/4 16/8/4 9/9/4
f 9/9/5 16/8/5 15/10/5 10/11/5
f 10/11/6 15/10/6 14/12/6 11/13/6
f 11/13/7 14/12/7 12/1/7 6/1/7
f 13/3/8 5/2/8 2/2/8 4/14/8 3/3/8
