# Blender 4.2.3 LTS
# www.blender.org
mtllib Lid_var_1.mtl
o Plane
v -0.176052 -0.034261 0.260953
v -0.128155 -0.077683 0.168927
v -0.191355 -0.077683 0.168927
v -0.214875 -0.049649 0.228340
v -0.208383 -0.077144 0.170069
v -0.222039 -0.075549 0.173450
v -0.231797 -0.072958 0.178940
v -0.237283 -0.069472 0.186329
v -0.238286 -0.065224 0.195332
v -0.234767 -0.060377 0.205604
v -0.226863 -0.055118 0.216749
v -0.159078 0.006149 0.228340
v -0.128155 -0.014481 0.168927
v -0.153045 0.018700 0.216749
v -0.147244 0.027147 0.205604
v -0.141898 0.031166 0.195332
v -0.137212 0.030600 0.186329
v -0.133366 0.025474 0.178940
v -0.130509 0.015982 0.173450
v -0.128749 0.002491 0.170069
vn -0.0000 -0.0000 1.0000
vn 0.0647 -0.0647 0.9958
vn 0.2115 -0.2115 0.9542
vn 0.3764 -0.3764 0.8466
vn 0.5365 -0.5365 0.6515
vn 0.6537 -0.6537 0.3813
vn 0.7042 -0.7042 0.0910
vn 0.6974 -0.6973 -0.1656
vn 0.6571 -0.6571 -0.3695
vn 0.6304 -0.6304 -0.4530
vt 0.598595 1.000000
vt 1.000000 0.598595
vt 1.000000 1.000000
vt 0.490799 0.996226
vt 0.996579 0.490446
vt 0.405114 0.985050
vt 0.986447 0.403717
vt 0.344833 0.966900
vt 0.969994 0.341739
vt 0.184901 0.815099
vt 0.820480 0.179520
vt 0.025096 0.638683
vt 0.637284 0.026496
vt 0.011335 0.567853
vt 0.567220 0.011967
vt 0.002861 0.471857
vt 0.471697 0.003021
vt 0.000000 0.354384
vt 0.354384 0.000000
vt 0.000000 0.000000
s 0
usemtl cream.002
f 13/1/1 3/2/1 2/3/1
f 3/2/2 13/1/2 20/4/2 5/5/2
f 5/5/3 20/4/3 19/6/3 6/7/3
f 6/7/4 19/6/4 18/8/4 7/9/4
f 7/9/5 18/8/5 17/10/5 8/11/5
f 8/11/6 17/10/6 16/12/6 9/13/6
f 9/13/7 16/12/7 15/14/7 10/15/7
f 10/15/8 15/14/8 14/16/8 11/17/8
f 11/17/9 14/16/9 12/18/9 4/19/9
f 1/20/10 4/19/10 12/18/10
