# Blender 4.2.3 LTS
# www.blender.org
mtllib Lid_15.mtl
o Plane
v -0.285603 0.079768 0.168927
v -0.269068 -0.054084 0.198920
v -0.128155 0.079768 0.168927
v -0.128155 -0.077683 0.168927
v -0.279435 -0.021013 0.180114
v -0.285603 0.020301 0.168927
v -0.281341 -0.013875 0.176657
v -0.283061 -0.005316 0.173539
v -0.284425 0.003824 0.171064
v -0.285301 0.012651 0.169475
v -0.208835 -0.077683 0.168927
v -0.241932 -0.068881 0.180114
v -0.214865 -0.077252 0.169475
v -0.221884 -0.076002 0.171064
v -0.229206 -0.074055 0.173539
v -0.236114 -0.071601 0.176657
vn -0.0000 -0.0000 1.0000
vn 0.0955 0.0748 0.9926
vn 0.2495 0.1955 0.9484
vn 0.3753 0.2941 0.8790
vn 0.4897 0.3837 0.7829
vn 0.6029 0.4723 0.6430
vn 0.6598 0.5170 0.5453
vt 0.000000 0.000000
vt 0.377686 0.000000
vt 1.000000 0.487576
vt 1.000000 1.000000
vt 0.000000 1.000000
vt 0.426274 0.001917
vt 0.997264 0.449281
vt 0.482337 0.007481
vt 0.989323 0.404699
vt 0.564624 -0.004874
vt 1.001192 0.337173
vt 0.633676 -0.001249
vt 1.000306 0.286002
vt 0.695984 0.000000
vt 1.000000 0.238193
vt 1.000000 0.000000
s 0
usemtl cream.002
f 1/1/1 6/2/1 11/3/1 4/4/1 3/5/1
f 11/3/2 6/2/2 10/6/2 13/7/2
f 13/7/3 10/6/3 9/8/3 14/9/3
f 14/9/4 9/8/4 8/10/4 15/11/4
f 15/11/5 8/10/5 7/12/5 16/13/5
f 16/13/6 7/12/6 5/14/6 12/15/6
f 12/15/7 5/14/7 2/16/7
