# Blender 4.2.3 LTS
# www.blender.org
mtllib Lid_120.mtl
o Plane
v -0.176052 -0.034261 0.260953
v -0.128155 -0.077683 0.168927
v -0.259346 -0.077683 0.168927
v -0.265899 -0.069873 0.185479
v -0.267894 -0.077088 0.170187
v -0.272141 -0.075395 0.173775
v -0.271440 -0.072862 0.179145
v -0.136770 0.059258 0.185479
v -0.128155 0.053511 0.168927
v -0.133473 0.065108 0.179145
v -0.130678 0.066070 0.173775
v -0.128811 0.061998 0.170187
vn -0.0000 -0.0000 1.0000
vn 0.1353 -0.1353 0.9815
vn 0.4593 -0.4593 0.7603
vn 0.6874 -0.6874 0.2346
vn 0.6800 -0.6800 -0.2741
vn 0.6304 -0.6304 -0.4530
vt 0.166766 1.000000
vt 1.000000 0.166766
vt 1.000000 1.000000
vt 0.112863 0.995835
vt 0.996224 0.112474
vt 0.051513 0.948487
vt 0.949986 0.050014
vt 0.003158 0.879606
vt 0.879429 0.003334
vt 0.000000 0.820135
vt 0.820135 0.000000
vt 0.000000 0.000000
s 0
usemtl cream.002
f 9/1/1 3/2/1 2/3/1
f 3/2/2 9/1/2 12/4/2 5/5/2
f 5/5/3 12/4/3 11/6/3 6/7/3
f 6/7/4 11/6/4 10/8/4 7/9/4
f 7/9/5 10/8/5 8/10/5 4/11/5
f 1/12/6 4/11/6 8/10/6
